<svg width="96" height="97" viewBox="0 0 96 97" fill="none" xmlns="http://www.w3.org/2000/svg">
<path d="M0 48.5C0 21.9903 21.4903 0.5 48 0.5C74.5097 0.5 96 21.9903 96 48.5C96 75.0097 74.5097 96.5 48 96.5C21.4903 96.5 0 75.0097 0 48.5Z" fill="white" fill-opacity="0.05"/>
<g opacity="0.3">
<path fill-rule="evenodd" clip-rule="evenodd" d="M35.8457 75.6151C35.3911 75.5581 34.935 75.4476 34.4516 75.2769C33.5731 74.9668 32.8398 74.5496 32.2993 74.2208C31.1086 73.4969 29.8979 72.5888 28.5985 71.4457C28.0311 70.9461 27.4784 70.4218 26.9548 69.8864L26.5049 69.428C26.1915 69.1307 25.9238 68.7975 25.7041 68.4386C25.2933 67.7819 24.9649 66.9053 24.9152 65.7575C24.8852 65.3839 24.8681 65.0075 24.8643 64.6325C24.8559 63.8152 24.9084 62.9717 25.0205 62.1252C25.2495 60.3965 25.7557 58.8425 26.1712 57.682C26.2053 57.5866 26.24 57.4911 26.2753 57.3954C26.1593 57.078 26.0494 56.7585 25.9463 56.4384C25.3498 54.5871 24.9587 52.6591 24.7831 50.7077C24.5984 48.6525 24.6509 46.5762 24.9393 44.5381C24.9999 44.1091 25.0718 43.6799 25.1536 43.2526C24.4078 42.0958 23.4621 40.4491 22.8747 38.4863L22.8635 38.4498C22.7363 38.0316 22.4383 37.0528 22.6032 35.7714C22.6645 35.2986 22.7713 34.8265 22.9307 34.326C23.2256 33.3988 23.6127 32.6253 23.9167 32.0551C24.5931 30.7878 25.4348 29.5027 26.4905 28.1265C26.9545 27.5218 27.4391 26.9351 27.9318 26.3823L28.362 25.8975C28.586 25.628 28.8328 25.3885 29.0984 25.182C29.7286 24.6777 30.6021 24.2551 31.7844 24.1965C32.1715 24.1607 32.568 24.142 32.9648 24.141H32.9951C33.7883 24.141 34.6081 24.2116 35.432 24.3509C36.6683 24.5602 37.8015 24.9345 38.8054 25.331C39.4746 25.0236 40.1623 24.7477 40.854 24.5099C42.5827 23.9149 44.3801 23.5383 46.1969 23.3903C48.0996 23.2349 50.0364 23.331 51.9072 23.6735C52.3425 23.7532 52.7786 23.847 53.212 23.9541C54.6832 22.8723 56.0379 22.1286 57.4326 21.634L57.4635 21.6227C57.7903 21.5008 58.4705 21.2473 59.3716 21.2473C59.5665 21.2473 59.7634 21.2594 59.9561 21.2835C60.411 21.3404 60.8672 21.4509 61.3502 21.6213C62.2294 21.9317 62.9624 22.3489 63.5029 22.6781C64.6939 23.402 65.9045 24.31 67.2036 25.4532C67.7707 25.9521 68.3237 26.4768 68.8476 27.0125L69.2969 27.4702C69.5209 27.6828 69.7215 27.9135 69.898 28.159C70.4645 28.9298 70.9066 30.025 70.9153 31.5686C70.9447 32.1184 70.9459 32.6796 70.9194 33.2414C70.8616 34.4703 70.6885 35.6412 70.4051 36.7214C70.1967 37.5149 69.948 38.3202 69.664 39.1218C70.2167 40.6192 70.6332 42.1711 70.9056 43.7499C71.4761 47.0564 71.4124 50.4764 70.7294 53.7547C71.1484 54.4063 71.504 55.0093 71.8129 55.593C72.35 56.6072 72.7762 57.6522 73.0792 58.6986C73.1917 59.087 73.4888 60.1136 73.2929 61.4281C73.2248 61.8848 73.113 62.3459 72.9515 62.8351C72.3869 64.5448 71.508 65.9377 70.7285 67.1089C69.8706 68.3977 68.9254 69.6219 67.9182 70.7479L67.5539 71.1584C67.327 71.4326 67.0762 71.6744 66.8065 71.883C66.1776 72.3826 65.3072 72.8008 64.1324 72.8597C63.745 72.8959 63.3482 72.914 62.9514 72.9153H62.9202C62.086 72.9153 61.2224 72.8369 60.3542 72.6826C58.9632 72.4355 57.6932 71.9774 56.5887 71.514C55.9882 71.7698 55.3765 71.9999 54.7622 72.2004C53.0039 72.7737 51.1799 73.1222 49.3406 73.2361C47.4294 73.3553 45.4899 73.219 43.6168 72.8359C43.3897 72.7894 43.1626 72.7392 42.936 72.6853C41.3148 73.9141 39.8592 74.7358 38.3689 75.2645L38.3383 75.2755C38.0115 75.3978 37.3313 75.6509 36.4303 75.6509C36.2353 75.6509 36.0385 75.6388 35.8457 75.6151Z" stroke="#F4F4F5"/>
<path fill-rule="evenodd" clip-rule="evenodd" d="M41.077 41.1695C39.9769 40.6368 39.1824 40.1001 38.3563 39.4679C37.0947 38.5438 35.9456 37.4924 34.9717 36.4025C32.6022 33.8129 31.5204 31.1026 31.8651 28.9409L30.9985 29.8022C29.2754 31.7453 26.9887 35.1432 26.9688 36.6215L27.0109 36.7775C27.3168 37.9082 27.837 39.045 28.5559 40.1563L28.5678 40.1744C29.4951 41.7873 31.3472 44.4191 37.9073 47.5043L36.7473 49.8404L45.6007 47.2916L42.4114 38.5042L41.077 41.1695Z" fill="#F4F4F5"/>
<path fill-rule="evenodd" clip-rule="evenodd" d="M54.844 55.8855C55.9444 56.4182 56.7386 56.9549 57.5647 57.5871C58.8266 58.5112 59.9754 59.5623 60.9493 60.6525C63.3191 63.2418 64.2924 65.6917 63.9478 67.8527L64.9228 67.2528C66.6459 65.3097 68.9322 61.9118 68.9525 60.4335L68.9101 60.2775C68.6042 59.1468 68.0843 58.0097 67.3651 56.8983L67.3532 56.8806C66.4262 55.2677 64.5738 52.6359 58.0137 49.5507L59.1737 47.2146L50.3203 49.7634L53.5099 58.5508L54.844 55.8855Z" fill="#F4F4F5"/>
<path fill-rule="evenodd" clip-rule="evenodd" d="M55.0517 41.0967C55.5485 39.9174 56.0496 39.0662 56.6395 38.1809C57.5015 36.8289 58.4828 35.5974 59.4995 34.5537C61.9162 32.014 64.4285 30.8363 66.4455 31.2057L65.6582 30.2953C63.8454 28.4486 60.6749 25.9983 59.2958 25.9766L59.1499 26.0221C58.0945 26.3499 57.0341 26.9071 55.9971 27.6779L55.9802 27.6906C54.4753 28.6844 52.0195 30.6693 49.1408 37.6998L46.9609 36.4565L49.3392 45.9448L57.5387 42.5264L55.0517 41.0967Z" fill="#F4F4F5"/>
<path fill-rule="evenodd" clip-rule="evenodd" d="M40.7549 55.8002C40.2579 56.9795 39.757 57.8307 39.1671 58.7156C38.3048 60.068 37.3238 61.2995 36.3071 62.3432C33.8905 64.8829 31.3843 65.9574 29.3672 65.5881L30.1485 66.6016C31.9612 68.4479 35.1318 70.8986 36.5108 70.92L36.6568 70.8748C37.7121 70.547 38.7725 69.9898 39.8095 69.2187L39.8264 69.2063C41.3314 68.2125 43.7871 66.2276 46.6662 59.1971L48.8457 60.4404L46.4675 50.9521L38.268 54.3701L40.7549 55.8002Z" fill="#F4F4F5"/>
</g>
</svg>
